<mxfile host="app.diagrams.net" modified="2021-09-22T08:04:38.225Z" agent="5.0 (Windows NT 10.0; Win64; x64) AppleWebKit/537.36 (KHTML, like Gecko) Chrome/93.0.4577.82 Safari/537.36" etag="paKlCqh7fG3HbIouSoA-" version="15.2.9" type="github" pages="2">
  <diagram id="WsAr8d2aiQJGBHiAzzFF" name="Schiță_proect">
    <mxGraphModel dx="3054" dy="1228" grid="1" gridSize="10" guides="1" tooltips="1" connect="1" arrows="1" fold="1" page="1" pageScale="1" pageWidth="850" pageHeight="1100" math="0" shadow="0">
      <root>
        <mxCell id="0" />
        <mxCell id="1" parent="0" />
        <mxCell id="46bO9sZuaNNFOMyM6MYC-11" style="edgeStyle=orthogonalEdgeStyle;curved=0;rounded=1;sketch=0;orthogonalLoop=1;jettySize=auto;html=1;" parent="1" source="46bO9sZuaNNFOMyM6MYC-4" target="46bO9sZuaNNFOMyM6MYC-9" edge="1">
          <mxGeometry relative="1" as="geometry" />
        </mxCell>
        <mxCell id="46bO9sZuaNNFOMyM6MYC-4" value="User" style="shape=umlActor;verticalLabelPosition=bottom;verticalAlign=top;html=1;outlineConnect=0;" parent="1" vertex="1">
          <mxGeometry x="-70" y="30" width="30" height="60" as="geometry" />
        </mxCell>
        <mxCell id="46bO9sZuaNNFOMyM6MYC-12" style="edgeStyle=orthogonalEdgeStyle;curved=0;rounded=1;sketch=0;orthogonalLoop=1;jettySize=auto;html=1;exitX=0.5;exitY=1;exitDx=0;exitDy=0;" parent="1" source="46bO9sZuaNNFOMyM6MYC-9" target="46bO9sZuaNNFOMyM6MYC-10" edge="1">
          <mxGeometry relative="1" as="geometry" />
        </mxCell>
        <mxCell id="46bO9sZuaNNFOMyM6MYC-9" value="Browser" style="rounded=1;whiteSpace=wrap;html=1;sketch=0;" parent="1" vertex="1">
          <mxGeometry x="70" y="42.5" width="120" height="60" as="geometry" />
        </mxCell>
        <mxCell id="46bO9sZuaNNFOMyM6MYC-29" style="edgeStyle=orthogonalEdgeStyle;curved=0;rounded=1;sketch=0;orthogonalLoop=1;jettySize=auto;html=1;entryX=0.5;entryY=0;entryDx=0;entryDy=0;" parent="1" source="46bO9sZuaNNFOMyM6MYC-10" target="46bO9sZuaNNFOMyM6MYC-13" edge="1">
          <mxGeometry relative="1" as="geometry" />
        </mxCell>
        <mxCell id="46bO9sZuaNNFOMyM6MYC-30" style="edgeStyle=orthogonalEdgeStyle;curved=0;rounded=1;sketch=0;orthogonalLoop=1;jettySize=auto;html=1;entryX=0.5;entryY=0;entryDx=0;entryDy=0;" parent="1" source="46bO9sZuaNNFOMyM6MYC-10" target="46bO9sZuaNNFOMyM6MYC-14" edge="1">
          <mxGeometry relative="1" as="geometry">
            <Array as="points">
              <mxPoint x="260" y="258" />
              <mxPoint x="160" y="258" />
            </Array>
          </mxGeometry>
        </mxCell>
        <mxCell id="46bO9sZuaNNFOMyM6MYC-31" style="edgeStyle=orthogonalEdgeStyle;curved=0;rounded=1;sketch=0;orthogonalLoop=1;jettySize=auto;html=1;entryX=0.5;entryY=0;entryDx=0;entryDy=0;" parent="1" source="46bO9sZuaNNFOMyM6MYC-10" target="46bO9sZuaNNFOMyM6MYC-15" edge="1">
          <mxGeometry relative="1" as="geometry">
            <Array as="points">
              <mxPoint x="260" y="260" />
              <mxPoint x="425" y="260" />
            </Array>
          </mxGeometry>
        </mxCell>
        <mxCell id="46bO9sZuaNNFOMyM6MYC-32" style="edgeStyle=orthogonalEdgeStyle;curved=0;rounded=1;sketch=0;orthogonalLoop=1;jettySize=auto;html=1;entryX=0.5;entryY=0;entryDx=0;entryDy=0;" parent="1" source="46bO9sZuaNNFOMyM6MYC-10" target="46bO9sZuaNNFOMyM6MYC-16" edge="1">
          <mxGeometry relative="1" as="geometry" />
        </mxCell>
        <mxCell id="46bO9sZuaNNFOMyM6MYC-10" value="Home Page" style="rounded=1;whiteSpace=wrap;html=1;sketch=0;" parent="1" vertex="1">
          <mxGeometry x="200" y="165" width="120" height="60" as="geometry" />
        </mxCell>
        <mxCell id="46bO9sZuaNNFOMyM6MYC-24" style="edgeStyle=orthogonalEdgeStyle;curved=0;rounded=1;sketch=0;orthogonalLoop=1;jettySize=auto;html=1;entryX=0;entryY=0.5;entryDx=0;entryDy=0;" parent="1" source="46bO9sZuaNNFOMyM6MYC-13" target="46bO9sZuaNNFOMyM6MYC-17" edge="1">
          <mxGeometry relative="1" as="geometry">
            <Array as="points">
              <mxPoint x="-90" y="320" />
              <mxPoint x="-90" y="445" />
            </Array>
          </mxGeometry>
        </mxCell>
        <mxCell id="46bO9sZuaNNFOMyM6MYC-25" style="edgeStyle=orthogonalEdgeStyle;curved=0;rounded=1;sketch=0;orthogonalLoop=1;jettySize=auto;html=1;entryX=0;entryY=0.5;entryDx=0;entryDy=0;" parent="1" source="46bO9sZuaNNFOMyM6MYC-13" target="46bO9sZuaNNFOMyM6MYC-18" edge="1">
          <mxGeometry relative="1" as="geometry">
            <Array as="points">
              <mxPoint x="-90" y="320" />
              <mxPoint x="-90" y="545" />
            </Array>
          </mxGeometry>
        </mxCell>
        <mxCell id="46bO9sZuaNNFOMyM6MYC-27" style="edgeStyle=orthogonalEdgeStyle;curved=0;rounded=1;sketch=0;orthogonalLoop=1;jettySize=auto;html=1;entryX=0;entryY=0.5;entryDx=0;entryDy=0;" parent="1" source="46bO9sZuaNNFOMyM6MYC-13" target="46bO9sZuaNNFOMyM6MYC-19" edge="1">
          <mxGeometry relative="1" as="geometry">
            <Array as="points">
              <mxPoint x="-90" y="320" />
              <mxPoint x="-90" y="635" />
            </Array>
          </mxGeometry>
        </mxCell>
        <mxCell id="46bO9sZuaNNFOMyM6MYC-28" style="edgeStyle=orthogonalEdgeStyle;curved=0;rounded=1;sketch=0;orthogonalLoop=1;jettySize=auto;html=1;entryX=0;entryY=0.5;entryDx=0;entryDy=0;" parent="1" source="46bO9sZuaNNFOMyM6MYC-13" target="46bO9sZuaNNFOMyM6MYC-20" edge="1">
          <mxGeometry relative="1" as="geometry">
            <Array as="points">
              <mxPoint x="-90" y="320" />
              <mxPoint x="-90" y="745" />
            </Array>
          </mxGeometry>
        </mxCell>
        <mxCell id="46bO9sZuaNNFOMyM6MYC-13" value="Countrys" style="rounded=1;whiteSpace=wrap;html=1;sketch=0;" parent="1" vertex="1">
          <mxGeometry x="-70" y="290" width="120" height="60" as="geometry" />
        </mxCell>
        <mxCell id="46bO9sZuaNNFOMyM6MYC-14" value="Travel options" style="rounded=1;whiteSpace=wrap;html=1;sketch=0;" parent="1" vertex="1">
          <mxGeometry x="100" y="290" width="120" height="60" as="geometry" />
        </mxCell>
        <mxCell id="46bO9sZuaNNFOMyM6MYC-15" value="About us" style="rounded=1;whiteSpace=wrap;html=1;sketch=0;" parent="1" vertex="1">
          <mxGeometry x="365" y="290" width="120" height="60" as="geometry" />
        </mxCell>
        <mxCell id="46bO9sZuaNNFOMyM6MYC-16" value="Contact us" style="rounded=1;whiteSpace=wrap;html=1;sketch=0;" parent="1" vertex="1">
          <mxGeometry x="570" y="290" width="120" height="60" as="geometry" />
        </mxCell>
        <mxCell id="46bO9sZuaNNFOMyM6MYC-17" value="Moldova" style="rounded=1;whiteSpace=wrap;html=1;sketch=0;" parent="1" vertex="1">
          <mxGeometry x="-70" y="420" width="110" height="50" as="geometry" />
        </mxCell>
        <mxCell id="46bO9sZuaNNFOMyM6MYC-18" value="Germany" style="rounded=1;whiteSpace=wrap;html=1;sketch=0;" parent="1" vertex="1">
          <mxGeometry x="-70" y="520" width="110" height="50" as="geometry" />
        </mxCell>
        <mxCell id="46bO9sZuaNNFOMyM6MYC-19" value="France" style="rounded=1;whiteSpace=wrap;html=1;sketch=0;" parent="1" vertex="1">
          <mxGeometry x="-70" y="610" width="110" height="50" as="geometry" />
        </mxCell>
        <mxCell id="46bO9sZuaNNFOMyM6MYC-20" value="&lt;font style=&quot;font-size: 24px&quot;&gt;...&lt;/font&gt;" style="rounded=1;whiteSpace=wrap;html=1;sketch=0;" parent="1" vertex="1">
          <mxGeometry x="-70" y="720" width="110" height="50" as="geometry" />
        </mxCell>
        <mxCell id="GnjmMqhrLAGrSqkK6r7z-2" style="edgeStyle=orthogonalEdgeStyle;curved=0;rounded=1;sketch=0;orthogonalLoop=1;jettySize=auto;html=1;entryX=-0.008;entryY=0.6;entryDx=0;entryDy=0;entryPerimeter=0;" parent="1" source="46bO9sZuaNNFOMyM6MYC-35" target="GnjmMqhrLAGrSqkK6r7z-1" edge="1">
          <mxGeometry relative="1" as="geometry">
            <Array as="points">
              <mxPoint x="159" y="595" />
            </Array>
          </mxGeometry>
        </mxCell>
        <mxCell id="46bO9sZuaNNFOMyM6MYC-35" value="" style="shape=requiredInterface;html=1;verticalLabelPosition=bottom;rounded=0;sketch=0;" parent="1" vertex="1">
          <mxGeometry x="60" y="430" width="50" height="330" as="geometry" />
        </mxCell>
        <UserObject label="Look" link="data:page/id,dDsMSDSFuUeX7UIIsnP-" id="GnjmMqhrLAGrSqkK6r7z-1">
          <mxCell style="ellipse;whiteSpace=wrap;html=1;rounded=0;sketch=0;" parent="1" vertex="1">
            <mxGeometry x="170" y="630" width="120" height="80" as="geometry" />
          </mxCell>
        </UserObject>
      </root>
    </mxGraphModel>
  </diagram>
  <diagram id="dDsMSDSFuUeX7UIIsnP-" name="Country">
    <mxGraphModel dx="1102" dy="614" grid="1" gridSize="10" guides="1" tooltips="1" connect="1" arrows="1" fold="1" page="1" pageScale="1" pageWidth="850" pageHeight="1100" math="0" shadow="0">
      <root>
        <mxCell id="iW7Gkrm2OEpCQWnqQyMQ-0" />
        <mxCell id="iW7Gkrm2OEpCQWnqQyMQ-1" parent="iW7Gkrm2OEpCQWnqQyMQ-0" />
        <mxCell id="T39g5dgdhsgrogFAUA4c-0" value="" style="rounded=0;whiteSpace=wrap;html=1;sketch=0;rotation=-90;" parent="iW7Gkrm2OEpCQWnqQyMQ-1" vertex="1">
          <mxGeometry x="-70" y="220" width="460" height="240" as="geometry" />
        </mxCell>
        <mxCell id="T39g5dgdhsgrogFAUA4c-1" value="" style="rounded=0;whiteSpace=wrap;html=1;sketch=0;rotation=90;" parent="iW7Gkrm2OEpCQWnqQyMQ-1" vertex="1">
          <mxGeometry x="240" y="130" width="440" height="270" as="geometry" />
        </mxCell>
        <mxCell id="T39g5dgdhsgrogFAUA4c-2" value="Comentariu: Animation left, to right" style="rounded=0;whiteSpace=wrap;html=1;sketch=0;" parent="iW7Gkrm2OEpCQWnqQyMQ-1" vertex="1">
          <mxGeometry x="20" y="670" width="120" height="60" as="geometry" />
        </mxCell>
        <mxCell id="T39g5dgdhsgrogFAUA4c-4" value="Moldova" style="shape=hexagon;perimeter=hexagonPerimeter2;whiteSpace=wrap;html=1;fixedSize=1;rounded=0;sketch=0;" parent="iW7Gkrm2OEpCQWnqQyMQ-1" vertex="1">
          <mxGeometry x="60" y="150" width="90" height="50" as="geometry" />
        </mxCell>
        <mxCell id="T39g5dgdhsgrogFAUA4c-6" value="Germany" style="shape=hexagon;perimeter=hexagonPerimeter2;whiteSpace=wrap;html=1;fixedSize=1;rounded=0;sketch=0;" parent="iW7Gkrm2OEpCQWnqQyMQ-1" vertex="1">
          <mxGeometry x="350" y="90" width="100" height="40" as="geometry" />
        </mxCell>
        <mxCell id="T39g5dgdhsgrogFAUA4c-7" value="Description" style="rounded=0;whiteSpace=wrap;html=1;sketch=0;" parent="iW7Gkrm2OEpCQWnqQyMQ-1" vertex="1">
          <mxGeometry x="350" y="160" width="130" height="280" as="geometry" />
        </mxCell>
        <mxCell id="T39g5dgdhsgrogFAUA4c-8" value="" style="rounded=0;whiteSpace=wrap;html=1;sketch=0;rotation=90;" parent="iW7Gkrm2OEpCQWnqQyMQ-1" vertex="1">
          <mxGeometry x="540" y="200" width="460" height="270" as="geometry" />
        </mxCell>
        <mxCell id="T39g5dgdhsgrogFAUA4c-9" value="France" style="shape=hexagon;perimeter=hexagonPerimeter2;whiteSpace=wrap;html=1;fixedSize=1;rounded=0;sketch=0;" parent="iW7Gkrm2OEpCQWnqQyMQ-1" vertex="1">
          <mxGeometry x="670" y="130" width="100" height="40" as="geometry" />
        </mxCell>
        <mxCell id="T39g5dgdhsgrogFAUA4c-10" value="Description" style="rounded=0;whiteSpace=wrap;html=1;sketch=0;" parent="iW7Gkrm2OEpCQWnqQyMQ-1" vertex="1">
          <mxGeometry x="670" y="235" width="140" height="280" as="geometry" />
        </mxCell>
        <mxCell id="HdV3T3ffRtef5BzdurWH-1" value="" style="shape=image;imageAspect=0;aspect=fixed;verticalLabelPosition=bottom;verticalAlign=top;rounded=0;sketch=0;image=https://i.redd.it/42k3is7jc9201.png;" parent="iW7Gkrm2OEpCQWnqQyMQ-1" vertex="1">
          <mxGeometry x="170" y="139.5" width="92.07" height="71" as="geometry" />
        </mxCell>
        <mxCell id="T39g5dgdhsgrogFAUA4c-5" value="Description" style="rounded=0;whiteSpace=wrap;html=1;sketch=0;" parent="iW7Gkrm2OEpCQWnqQyMQ-1" vertex="1">
          <mxGeometry x="50" y="230" width="150" height="255" as="geometry" />
        </mxCell>
        <mxCell id="HdV3T3ffRtef5BzdurWH-2" value="" style="shape=image;imageAspect=0;aspect=fixed;verticalLabelPosition=bottom;verticalAlign=top;rounded=0;sketch=0;image=https://image.spreadshirtmedia.net/image-server/v1/compositions/T15A10PA13PT1X1Y1D120970555FS1363/views/1,width=650,height=650,appearanceId=10/its-a-german-nationball-aka-countryball-or-polandball-with-beer-uend-bratwurst.jpg;" parent="iW7Gkrm2OEpCQWnqQyMQ-1" vertex="1">
          <mxGeometry x="490" y="65" width="90" height="90" as="geometry" />
        </mxCell>
        <mxCell id="HdV3T3ffRtef5BzdurWH-3" value="" style="shape=image;imageAspect=0;aspect=fixed;verticalLabelPosition=bottom;verticalAlign=top;rounded=0;sketch=0;image=https://www.kindpng.com/picc/m/707-7075287_france-png-countryball-france-transparent-png.png;" parent="iW7Gkrm2OEpCQWnqQyMQ-1" vertex="1">
          <mxGeometry x="780" y="144" width="111.01" height="76" as="geometry" />
        </mxCell>
        <mxCell id="6YHE0wRhdXiKj1b35vVL-0" value="" style="rounded=0;whiteSpace=wrap;html=1;sketch=0;rotation=90;" vertex="1" parent="iW7Gkrm2OEpCQWnqQyMQ-1">
          <mxGeometry x="870" y="144" width="460" height="270" as="geometry" />
        </mxCell>
        <mxCell id="6YHE0wRhdXiKj1b35vVL-1" value="Germany" style="shape=hexagon;perimeter=hexagonPerimeter2;whiteSpace=wrap;html=1;fixedSize=1;rounded=0;sketch=0;" vertex="1" parent="iW7Gkrm2OEpCQWnqQyMQ-1">
          <mxGeometry x="990" y="90" width="100" height="40" as="geometry" />
        </mxCell>
      </root>
    </mxGraphModel>
  </diagram>
</mxfile>
